# xmcd
# 
# Track frame offsets:
#     150
#     16631
#     34238
#     49292
#     65693
#     82905
#     98324
# 
# Disc length: 1530
# 
# Revision: 0
# Processed by: cddbd v1.5.2PL0 Copyright (c) Steve Scherf et al.
# Submitted via: fre:ac v1.0.17
# 
DISCID=4805f807
DTITLE=Muerte y Destrucción - Cartago
DYEAR=0
DGENRE=
TTITLE0=Darse por muerto
TTITLE1=Buenaesperanza
TTITLE2=La isla de los conejos
TTITLE3=Campamento paciencia 1996
TTITLE4=Ponme una demanda
TTITLE5=Contabilidad de costes
TTITLE6=El corazón de las tinieblas
EXTD=
EXTT0=
EXTT1=
EXTT2=
EXTT3=
EXTT4=
EXTT5=
EXTT6=
PLAYORDER=
